<svg xmlns="http://www.w3.org/2000/svg" width="256" height="256" viewBox="0 0 100 100"><rect width="100" height="100" rx="20" fill="#7d6ee7"></rect><path fill="#fff" d="M33.16 27.13L33.16 27.13Q33.54 26.98 34.33 26.79Q35.11 26.60 35.94 26.60L35.94 26.60Q39.24 26.60 39.24 29.38L39.24 29.38L39.24 61.48Q39.24 64.85 38.26 67.14Q37.29 69.42 35.60 70.81Q33.91 72.20 31.70 72.80Q29.49 73.40 27.09 73.40L27.09 73.40Q22.81 73.40 20.86 72.39Q18.91 71.38 18.91 69.73L18.91 69.73Q18.91 68.67 19.36 67.92Q19.81 67.17 20.19 66.80L20.19 66.80Q21.31 67.33 22.89 67.78Q24.46 68.23 26.19 68.23L26.19 68.23Q29.56 68.23 31.36 66.61Q33.16 65 33.16 61.18L33.16 61.18L33.16 27.13ZM55.89 72.58L55.89 72.58Q54.46 72.58 53.52 71.67Q52.59 70.78 52.59 69.28L52.59 69.28L52.59 27.13Q52.96 26.98 53.75 26.79Q54.54 26.60 55.44 26.60L55.44 26.60Q58.74 26.60 58.74 29.38L58.74 29.38L58.74 67.33L80.26 67.33Q81.09 68.15 81.09 69.80L81.09 69.80Q81.09 71.08 80.41 71.83Q79.74 72.58 78.61 72.58L78.61 72.58L55.89 72.58Z"></path></svg>